# File created by Blade
# Date/Time:  Wed Jan 21 17:57:11 2015
# Frame Rate: 120.000 fps
#------------------------------------------------------
:FULLY-SPECIFIED
:DEGREES
1974
root 15.835452 35.670911 -22.684826 -178.476822 2.342715 -178.163152
Spine -11.341176 0.907898 -0.578378
Head 138.552166 2.732055 182.796267
LeftShoulder -4.050010 -14.113116 7.624104
LeftArm 5.904314 4.204007 -16.215804
LeftForeArm 8.240721 -0.000000 -0.864529
LeftHand -3.584878 -0.000000 -4.495520
LeftHandThumb1 -26.253704 0.000000 33.147579
RightShoulder -9.300761 -20.597998 0.733615
RightArm 12.512185 26.717162 25.477700
RightForeArm -37.848279 -0.000000 5.288846
RightHand -1.409738 -0.000000 9.312738
RightHandThumb1 -24.326973 -0.000000 -32.862282
LeftUpLeg 9.006578 8.427861 0.866067
LeftLeg -7.294424 -0.000000 0.000000
LeftFoot -19.329603 27.532418 -12.651739
LeftToeBase 22.300026 -0.000000 -0.000000
RightUpLeg 3.342143 -8.261537 -2.768291
RightLeg -0.123236 -0.000000 0.000000
RightFoot -18.077231 -18.716937 19.086518
RightToeBase 23.152006 -0.000000 -0.000000
1975
root 15.884036 35.664343 -22.741729 -178.354240 2.304951 -178.206467
Spine -11.669030 0.976434 -0.683976
Head 138.431167 2.753555 182.853939
LeftShoulder -4.262787 -14.463812 8.134391
LeftArm 6.012318 3.959764 -15.211460
LeftForeArm 8.453809 -0.000000 -0.890100
LeftHand -3.863121 -0.000000 -4.133268
LeftHandThumb1 -26.253704 0.000000 33.147579
RightShoulder -9.433941 -20.382194 0.296694
RightArm 11.848394 27.729989 24.680512
RightForeArm -37.968958 -0.000000 5.290531
RightHand -1.632436 -0.000000 9.222067
RightHandThumb1 -24.326973 -0.000000 -32.862282
LeftUpLeg 8.984374 8.214934 0.873137
LeftLeg -7.316793 -0.000000 0.000000
LeftFoot -19.474544 27.668541 -12.854960
LeftToeBase 22.347771 -0.000000 -0.000000
RightUpLeg 3.471401 -8.304987 -2.748453
RightLeg -0.419766 -0.000000 0.000000
RightFoot -18.087915 -18.690456 19.065591
RightToeBase 23.218128 -0.000000 -0.000000
1976
root 15.936143 35.657677 -22.798507 -178.271805 2.326669 -178.220298
Spine -11.948921 1.045568 -0.756731
Head 138.276346 2.902817 182.778128
LeftShoulder -4.464859 -14.817854 8.673376
LeftArm 6.018052 3.703635 -14.269360
LeftForeArm 8.711732 0.000000 -0.841069
LeftHand -4.104771 -0.000000 -3.866145
LeftHandThumb1 -26.253704 0.000000 33.147579
RightShoulder -9.425522 -20.053720 -0.182837
RightArm 11.080692 28.643218 23.847378
RightForeArm -38.294233 -0.000000 5.222459
RightHand -1.695368 -0.000000 9.068629
RightHandThumb1 -24.326973 -0.000000 -32.862282
LeftUpLeg 9.020216 8.115171 0.925690
LeftLeg -7.352868 -0.000000 0.000000
LeftFoot -19.542463 27.766768 -12.976830
LeftToeBase 22.305773 -0.000000 -0.000000
RightUpLeg 3.634389 -8.129088 -2.685372
RightLeg -0.711124 -0.000000 0.000000
RightFoot -18.142352 -18.820044 19.081304
RightToeBase 23.365395 -0.000000 -0.000000
1977
root 15.990264 35.652187 -22.856202 -178.195370 2.307871 -178.236339
Spine -12.200002 1.121093 -0.835843
Head 138.188923 3.030311 182.750886
LeftShoulder -4.681512 -15.060132 9.153791
LeftArm 6.170419 3.396999 -13.337550
LeftForeArm 8.981016 -0.000000 -0.849526
LeftHand -4.258875 -0.000000 -3.540653
LeftHandThumb1 -26.253704 0.000000 33.147579
RightShoulder -9.514167 -19.718634 -0.608978
RightArm 10.347381 29.370964 22.964445
RightForeArm -38.431994 0.000000 5.202781
RightHand -1.820899 -0.000000 9.160982
RightHandThumb1 -24.326973 -0.000000 -32.862282
LeftUpLeg 9.038770 8.038244 0.988122
LeftLeg -7.348685 -0.000000 0.000000
LeftFoot -19.587992 27.808572 -13.071563
LeftToeBase 22.208291 -0.000000 -0.000000
RightUpLeg 3.833915 -7.951457 -2.621438
RightLeg -1.043486 -0.000000 0.000000
RightFoot -18.187560 -18.967919 19.099255
RightToeBase 23.384115 -0.000000 -0.000000
1978
root 16.046510 35.647015 -22.908233 -178.137457 2.243829 -178.237092
Spine -12.414941 1.119471 -0.894420
Head 138.082233 3.103043 182.739655
LeftShoulder -4.833517 -15.546739 9.683144
LeftArm 6.139383 3.340009 -12.487223
LeftForeArm 9.286608 -0.000000 -0.852250
LeftHand -4.383265 -0.000000 -3.225708
LeftHandThumb1 -26.253704 0.000000 33.147579
RightShoulder -9.557223 -19.398250 -1.039874
RightArm 9.716555 30.063888 22.127873
RightForeArm -38.433157 -0.000000 5.113171
RightHand -2.311588 -0.000000 9.388791
RightHandThumb1 -24.326973 -0.000000 -32.862282
LeftUpLeg 9.052260 7.945354 1.071058
LeftLeg -7.339155 -0.000000 0.000000
LeftFoot -19.692713 27.839003 -13.181336
LeftToeBase 22.281259 -0.000000 -0.000000
RightUpLeg 4.059912 -7.799622 -2.529523
RightLeg -1.396282 -0.000000 0.000000
RightFoot -18.213414 -19.175608 19.108717
RightToeBase 23.264263 -0.000000 -0.000000
